<svg id="svg" version="1.1" viewBox="0 0 300 292.5" width="300" height="292.5" xmlns="http://www.w3.org/2000/svg"><svg xmlns="http://www.w3.org/2000/svg"><defs><clipPath id="clip-1"><rect x="0" y="0" transform="scale(0.14648,0.14647)" width="2048" height="1997" fill="none"/></clipPath></defs><g clip-path="url(#clip-1)" fill="none" fill-rule="nonzero" stroke="none" stroke-width="1" stroke-linecap="butt" stroke-linejoin="miter" stroke-miterlimit="10" stroke-dasharray="" stroke-dashoffset="0" font-family="none" font-weight="none" font-size="none" text-anchor="none" style="mix-blend-mode: normal"><path d="M161.28955,10.02614c23.69531,-0.48936 47.0332,5.827 67.24805,18.19974c27.50684,16.83816 47.35547,43.74655 55.31982,74.99718c8.36133,32.72411 3.16846,67.43758 -14.40381,96.28186c-17.78467,29.49021 -46.5791,50.68731 -80.02441,58.90719c-26.54736,6.53255 -55.95381,2.49731 -81.74077,-5.44428c-11.0729,-3.40981 -21.54155,-7.40844 -31.49355,-13.42395c12.71396,1.16004 25.48477,1.57308 38.24692,1.2406c34.9415,-1.10878 71.42344,-9.55129 100.00547,-30.54772c6.72949,-4.98729 12.97559,-10.59708 18.65625,-16.7532c10.51025,-11.84647 18.9082,-24.81929 22.19824,-40.48862c5.03174,-24.35908 0.18457,-49.71899 -13.47217,-70.50803c-13.51758,-20.44585 -34.52344,-34.76795 -58.49561,-39.88399c-24.47168,-5.2152 -50.01328,-0.36486 -70.86914,13.45808c-26.40044,17.41188 -42.20098,46.9948 -41.99019,78.61717c0.0167,3.13694 0.38716,6.23639 0.56763,9.22041c0.13433,2.22063 1.98765,10.77636 1.71328,12.11949c-0.84609,0.77922 -6.51021,4.29303 -7.7376,5.08103l-18.72612,11.98269c-0.62461,-1.53061 -1.29155,-4.05428 -1.75503,-5.69474c-2.61255,-9.28764 -4.10566,-18.85358 -4.44756,-28.49583c-0.16978,-4.63738 -0.29399,-8.97581 0.01245,-13.61377c1.95044,-28.0343 13.39233,-54.56817 32.44087,-75.23094c23.67026,-25.36416 54.13301,-38.86531 88.74697,-40.02036z" fill="#00796B"/><path d="M162.83643,13.103c16.45752,-0.16216 32.77441,3.04997 47.94141,9.43824c29.88574,12.6169 53.47705,36.67059 65.51074,66.79385c11.87842,30.18887 11.25146,63.86489 -1.74609,93.58945c-13.18945,30.40858 -37.77686,54.43254 -68.48437,66.91615c-26.11523,10.32611 -48.20654,10.71426 -75.45132,5.70207c-13.71929,-2.51635 -27.12129,-6.53108 -39.96533,-11.9695c3.85635,0.37936 7.83853,0.08788 11.654,0.51704c1.06274,0.12011 3.42773,1.2655 4.47612,1.7137c29.46152,12.58321 65.94082,11.93435 94.87295,-1.94951c12.5083,-5.28902 25.39893,-15.2724 34.80176,-24.94818c42.58887,-43.82374 40.92627,-114.02872 -2.83154,-156.51328c-21.95361,-21.32028 -51.4043,-33.16177 -82.00781,-32.97209c-30.51006,0.47661 -58.38823,11.03049 -80.59263,32.24618c-3.39272,3.26671 -6.59253,6.72779 -9.58359,10.36595c-1.35703,1.65818 -3.08965,4.29815 -4.52593,5.71862c3.40503,-7.85693 12.88682,-20.24079 18.74165,-26.4268c17.17002,-18.29802 39.59224,-30.82221 64.17759,-35.847c8.18525,-1.61915 14.74336,-2.1493 23.0124,-2.37489z" fill="#F4D35E"/><path d="M131.62485,185.62984c0.4418,-0.02344 0.88374,-0.03955 1.32598,-0.04834c6.53525,-0.13036 13.70933,0.23289 20.29966,0.29587c3.40283,0.02344 6.8042,0.07031 10.20703,0.14061c1.75781,0.03369 3.66943,-0.05273 5.40381,0.24021c1.24219,0.20945 2.73633,0.6928 3.62842,1.60384c0.57568,0.58881 0.83936,1.29333 0.82471,2.11356c-0.00732,0.44087 -0.07617,0.86124 -0.24316,1.26989c-1.29932,3.18425 -3.3501,6.2982 -5.02002,9.31547c-1.60986,2.91035 -6.14209,11.97536 -8.20166,13.9527c-2.99121,2.86934 -7.95264,3.82872 -11.93701,3.78478l-25.74053,-0.498c-3.79146,-0.09813 -7.73525,-0.03662 -11.49961,-0.37057c-1.73232,-0.10546 -4.68149,-1.35777 -4.68354,-3.4186c-0.00205,-2.04765 2.74731,-5.45453 3.85518,-7.06277l4.11797,-6.06385c2.31533,-3.38345 4.54482,-6.82988 6.90029,-10.17964c2.39312,-3.40396 6.87964,-4.53617 10.7625,-5.07518z" fill="#00796B"/><path d="M74.59043,184.73784c2.35444,-0.23435 5.35239,-0.04101 7.75166,0.00879l11.17266,0.19188c5.75435,0.09521 11.58003,0.17869 17.32705,0.40279c2.47617,0.09667 5.76006,2.06815 4.01938,4.84961c-2.05181,3.27946 -4.40127,6.5179 -6.62432,9.71387l-5.1542,7.38793c-2.49185,3.56947 -3.90293,6.23375 -8.11479,7.98113c-3.09199,1.28307 -5.25176,1.72834 -8.57871,1.6639c-7.84175,-0.0498 -15.71953,-0.33395 -23.56318,-0.45699c-4.18345,-0.06738 -8.38594,-0.12889 -12.5644,-0.32223c-3.46553,-0.16112 -6.20889,-2.54125 -3.5376,-5.78409c1.4124,-1.81622 2.87637,-3.61194 4.34004,-5.39594l6.55928,-8.01336c6.12905,-7.44066 6.75498,-10.47698 16.96714,-12.22729z" fill="#00796B"/><path d="M155.18115,150.32479c2.21191,-0.16112 5.63086,-0.04541 7.93359,-0.0249c4.79736,0.03076 9.59473,0.09521 14.39209,0.19773c2.42285,0.04541 17.96777,-1.38267 15.61963,4.49808c-0.50537,1.2655 -2.48437,4.80274 -3.31787,6.15319c-5.63965,9.14117 -5.38477,15.65322 -17.79932,16.07212c-6.16553,0.08056 -12.9126,-0.20506 -19.16602,-0.24314c-3.25635,-0.01465 -6.51226,-0.05126 -9.76831,-0.10692c-2.67012,-0.03662 -8.80869,0.44673 -9.87349,-2.78878c-0.29121,-1.56137 1.50073,-3.81554 2.29409,-4.95361c3.3731,-4.84375 6.53862,-9.79736 9.96123,-14.59278c2.05737,-2.88399 6.40356,-3.84776 9.72437,-4.211z" fill="#00796B"/><path d="M104.3959,149.76234c6.0542,-0.08202 12.31084,0.13915 18.40562,0.07909c4.27368,0.08056 8.6231,-0.14501 12.87935,0.23289c2.73647,0.24168 5.91548,1.42222 3.8228,4.67971c-1.77583,2.76535 -3.81284,5.48676 -5.61914,8.17154c-6.27715,9.33305 -7.68267,13.50451 -19.87603,13.53819c-10.70361,-0.37057 -21.68452,-0.14354 -32.3937,-0.67962c-1.86636,-0.02636 -4.80806,-1.92168 -3.19849,-4.00741c2.73032,-3.53871 5.76079,-7.42162 8.68286,-10.78163c3.14854,-3.61927 5.62822,-8.29165 10.25654,-9.92772c2.54282,-0.89932 4.30503,-1.2362 7.04019,-1.30505z" fill="#00796B"/><path d="M209.15186,150.77884c2.49316,-0.11132 5.58838,0.05419 8.14453,0.02929c7.3374,-0.06884 14.81689,0.25632 22.14111,0.18602c-0.61963,1.72834 -1.05469,3.80235 -1.7124,5.71232c-2.12695,6.17516 -6.76465,16.33284 -10.85742,21.35675c-2.21484,-0.12157 -4.58057,-0.09374 -6.81152,-0.10399l-16.83984,-0.26511c-3.0791,-0.04687 -6.25488,-0.05566 -9.28125,-0.27976c-2.53418,-0.18748 -5.83301,-1.89239 -4.30664,-4.82178c0.54932,-1.05458 1.02686,-2.12235 1.61133,-3.174c0.97852,-1.7342 1.80762,-3.52699 2.80664,-5.25387c1.91895,-3.25456 3.53613,-7.31616 5.87549,-10.26753c1.72412,-2.17508 6.67383,-2.94258 9.22998,-3.11834z" fill="#00796B"/><path d="M160.89844,92.04303c12.63428,-1.5454 26.16943,5.99076 31.60986,17.34846c0.50977,1.06586 2.40381,4.49677 1.84717,5.47328c-1.17334,0.19158 -6.79834,0.07485 -8.36133,0.0747l-19.03857,0.00322c-11.18994,-0.00264 -22.75137,-0.15951 -33.90146,0.03691c1.25054,-6.34404 6.6375,-13.27938 11.8125,-17.04893c4.13291,-3.0101 10.92246,-5.55677 16.03184,-5.88764z" fill="#F4D35E"/><path d="M6.20854,215.6078c0.7824,-0.02929 1.86822,0.33102 2.62854,0.56684c2.2484,0.70159 4.39478,1.22742 6.70594,1.67854c7.8082,1.5848 15.67983,2.84005 23.5938,3.76134c15.75806,1.94072 32.45933,2.90596 48.30718,3.52699c8.88325,0.4233 17.7731,0.68841 26.66572,0.79533l38.61343,0.05859c2.53711,-0.02051 5.07422,-0.02197 7.60986,-0.05126c0.59473,-0.00586 1.7915,-0.2739 2.19287,-0.00293c-0.4292,0.51411 -5.16943,1.47349 -6.26221,1.7591c-15.44224,3.46401 -31.13672,5.68742 -46.93345,6.65119c-30.35771,1.89239 -64.31807,-1.39293 -92.40835,-13.55724c-1.67432,-0.72503 -9.77342,-4.35601 -10.71334,-5.18649z" fill="#00796B"/><path d="M36.79146,224.4531c1.40039,-0.06298 4.02788,0.3486 5.56831,0.52436c3.00718,0.33688 6.01626,0.65765 9.02695,0.96084c8.21411,0.80705 16.97065,1.33434 25.2252,1.77082c10.95454,0.57563 21.91787,0.96963 32.88545,1.18348l13.09849,0.15086c2.09634,0.04101 4.75635,0.02051 6.78223,0.28855l-2.38315,0.31784c-4.76118,0.71331 -10.34883,1.13221 -15.1333,1.4603c-20.87153,1.4354 -42.5187,0.75871 -63.01025,-3.58851c-3.18823,-0.67669 -9.17871,-1.83234 -12.05991,-3.06854z" fill="#F4D35E"/><path d="M173.59131,120.59891c2.03906,-0.13534 4.62598,-0.07148 6.70313,-0.06459l10.92627,0.04555l9.01465,0.04658c2.02295,0.01142 11.91064,-0.58383 9.6416,3.94121c-2.17383,4.39233 -4.78564,8.65255 -7.04443,12.99245c-2.25586,4.33462 -5.61035,5.04149 -10.16602,5.52454c-10.6626,0.24314 -21.63574,-0.28034 -32.33203,-0.23406c-2.22217,0.00967 -5.88135,-1.29699 -4.0752,-4.17644c1.05029,-1.67547 2.12256,-3.27741 3.25635,-4.93749l5.33643,-7.87524c2.50781,-3.68723 4.32275,-4.42236 8.73926,-5.26251z" fill="#00796B"/><path d="M127.54497,120.31549c6.54946,-0.28415 13.40376,0.18367 19.9853,0.01933c3.40283,0.09081 7.08691,-0.18514 10.44287,0.28562c2.18555,0.36603 4.21436,1.50922 2.51807,3.87881c-3.49219,4.88213 -6.82031,10.39744 -10.59229,15.01432c-1.96875,2.40855 -7.77803,3.12903 -10.75503,3.17517l-19.40435,-0.07499c-3.71646,-0.02373 -7.56445,0.02739 -11.26567,-0.32941c-2.38828,-0.2301 -4.61924,-1.58041 -2.65444,-4.1054c3.4897,-4.48476 7.23105,-8.83681 10.82212,-13.24862c2.91987,-3.60652 6.48267,-4.26842 10.90342,-4.61482z" fill="#00796B"/><path d="M190.59961,186.52624c6.43799,0.04394 12.87598,0.14061 19.31396,0.28708c2.36572,0.04834 8.22949,0.30905 10.29346,0.05273c-1.97754,2.19412 -3.74121,4.26227 -5.87109,6.35971c-6.92578,6.81231 -15.45557,13.22621 -24.11133,17.65399c-5.79492,2.83712 -12.12598,5.71964 -18.48047,6.95878c-3.20801,0.62543 -5.2002,-2.44311 -3.60205,-5.34321c1.70068,-3.08905 3.23291,-6.37729 5.04785,-9.40189c5.32031,-8.86435 5.34521,-16.02232 17.40967,-16.56719z" fill="#00796B"/><path d="M224.38623,120.75285c4.64209,-0.25032 11.27783,0.0063 16.1748,0.00103c1.32861,5.47929 1.27441,17.23553 0.3999,22.8005c-4.96582,0.11058 -10.7959,-0.01699 -15.7793,-0.10971c-3.72803,-0.05829 -13.979,0.51118 -16.66846,-1.31339c-0.58447,-0.39649 -1.19971,-1.04418 -1.27881,-1.78005c-0.11865,-1.08944 7.58789,-15.36936 8.94727,-16.91037c1.771,-2.00854 5.71582,-2.502 8.20459,-2.68801z" fill="#00796B"/><path d="M200.74805,59.15985c1.86475,0.74846 0.78809,4.76407 0.24756,6.13386c-2.74805,6.96903 -8.83594,19.30573 -15.62988,22.68362c-2.74365,-1.25276 0.68408,-8.48426 1.5542,-10.40931c2.31885,-5.12659 8.49609,-16.44298 13.82813,-18.40817z" fill="#F4D35E"/><path d="M182.76123,51.96525c0.19775,0.0085 0.42188,0.05961 0.62256,0.09506c4.00049,3.10106 -3.01758,28.40956 -8.26172,31.4885c-4.6875,-0.25427 1.77686,-28.84911 7.63916,-31.58356z" fill="#F4D35E"/><path d="M215.30273,71.0548c2.44922,-0.05712 1.62598,2.44473 0.84375,3.73512c-4.10449,6.77173 -13.8252,17.38874 -21.40137,19.82848c-2.24854,0.08891 -1.37842,-2.10682 -0.78809,-3.29982c2.52686,-5.09949 6.62842,-9.16168 10.69629,-13.0462c3.25488,-3.10897 6.33984,-5.69196 10.64941,-7.21759z" fill="#F4D35E"/><path d="M163.60693,49.31811c0.62402,0.19085 0.95215,0.39561 1.33154,0.93301c3.23438,4.58802 2.80225,19.78703 1.82666,25.46683c-0.36914,2.15296 -0.92871,5.03914 -2.80371,6.3729c-3.54199,-0.64622 -3.79395,-15.32981 -3.65918,-18.5747c0.16406,-3.94458 0.44385,-11.2455 3.30469,-14.19804z" fill="#F4D35E"/><path d="M144.59619,51.9632c0.66929,0.04101 1.13306,0.3089 1.60151,0.77922c4.34429,4.36084 8.20415,20.80046 8.06499,26.97166c-0.03223,1.46104 -0.18311,2.86216 -1.28174,3.92217c-5.15771,-1.22126 -12.70562,-28.84853 -8.38477,-31.67305z" fill="#F4D35E"/><path d="M226.72266,86.14513c0.27686,0.00864 0.55371,0.03178 0.82764,0.06928c0.61816,0.08568 0.75293,0.2052 1.08398,0.63744c0.10693,0.65325 -0.37646,1.7011 -0.79102,2.15472c-5.86377,6.41991 -17.15039,13.06305 -25.62744,14.57139c-0.72363,-0.01846 -1.02393,0.02182 -1.69043,-0.25295c-1.3418,-1.49472 2.06689,-4.5284 3.15967,-5.42963c6.59619,-5.44076 14.65283,-9.97371 23.0376,-11.75024z" fill="#F4D35E"/><path d="M126.56455,59.38292c0.66182,0.03603 1.29404,0.24329 1.87017,0.56742c5.23682,2.94507 12.86074,17.36896 14.56245,23.39868c0.42964,1.52211 0.75161,2.91299 -0.05654,4.36685c-0.29517,0.06137 -0.47285,0.07616 -0.77505,0.11132c-1.18154,-0.41846 -2.14761,-1.21467 -3.02417,-2.09056c-4.64341,-4.63987 -13.30825,-18.58554 -13.15884,-25.02054c0.01494,-0.64447 0.12144,-0.88453 0.58198,-1.33317z" fill="#F4D35E"/><path d="M94.15005,103.59377c7.92129,-0.71507 19.69907,3.04921 26.75142,6.76529c1.83193,0.96524 4.05264,3.22204 0.41045,3.8542c-4.33008,0.64974 -13.22622,-1.13909 -17.54854,-2.60657c-3.88696,-1.4978 -9.32095,-2.80797 -11.9124,-6.24181c-0.85444,-1.13221 1.55112,-1.6428 2.29907,-1.77111z" fill="#F4D35E"/><path d="M111.3873,70.98947c2.93027,0.63216 5.24868,1.97763 7.59888,3.81378c4.14053,3.23493 15.0063,13.49147 15.4582,18.54922c0.04746,0.53125 -0.07822,0.70013 -0.42026,1.09852c-6.30615,0.6471 -25.95073,-19.69358 -22.63682,-23.46152z" fill="#F4D35E"/><path d="M229.87646,103.63537c1.59229,-0.15306 5.60596,-0.46226 6.2959,1.30929c-0.03369,0.31257 -0.05713,0.55878 -0.30176,0.79138c-5.00244,4.74987 -18.60059,8.13669 -25.19092,8.48338c-1.66699,0.13285 -4.24072,0.36339 -5.74658,-0.4854c-0.74268,-0.41832 -0.28711,-1.7676 0.25488,-2.15926c5.91357,-4.26769 17.44336,-7.66154 24.68848,-7.93939z" fill="#F4D35E"/><path d="M99.79438,86.28735c7.24995,-0.44424 21.03398,8.24478 26.16284,13.48664c0.95728,0.97842 2.42095,2.58109 0.99741,3.73893c-0.29136,0.0394 -0.57187,0.0624 -0.86631,0.06254c-6.3687,0.00308 -20.17339,-8.48733 -24.5562,-12.83646c-0.74473,-0.73879 -2.48203,-2.36651 -2.31504,-3.5223c0.07002,-0.48364 0.25752,-0.60829 0.57729,-0.92935z" fill="#F4D35E"/><path d="M101.00303,120.62351c2.60142,-0.27522 9.42378,-0.14515 12.00703,0.27873c-1.63096,1.6885 -3.94087,5.23878 -5.78613,6.48582c-1.51421,0.23142 -4.74653,0.02109 -6.46743,0.00337c-2.37026,-0.13856 -7.66509,-0.65838 -9.58813,-1.67898c-6.86338,-3.64285 8.17485,-5.04002 9.83467,-5.08894z" fill="#F4D35E"/></g></svg></svg>
